<svg id="Layer_1" data-name="Layer 1" xmlns="http://www.w3.org/2000/svg" viewBox="0 0 1500 1500"><defs><style>.cls-1{fill:#0a1a2f;}.cls-2{fill:none;}.cls-3{fill:#fff;}.cls-4{fill:#231f20;}.cls-5{fill:#39ff14;}</style></defs><title>icon quintlap</title><rect class="cls-1" width="1500" height="1500"/><polygon class="cls-2" points="1047.17 374.55 1421.49 241.46 1047.17 373.93 1047.17 374.55"/><path class="cls-3" d="M239.94,1017.43V429.71H636v185.8H820.7V233H222.75v.8C128.8,242.48,55.23,321.5,55.23,417.71V1039c0,96.21,73.57,175.23,167.52,183.91v.8h598V834.05L648.38,1017.43Z"/><path class="cls-3" d="M497.83,650.7v54.88h947.55a54.87,54.87,0,0,0-54.87-54.88H1047.17V374.55L862.46,440.22V650.7Z"/><polygon class="cls-4" points="1445.38 233 1445.27 233 1421.49 241.46 1445.38 233"/><polygon class="cls-5" points="1047.17 373.93 1421.49 241.46 1445.27 233 862.46 233 862.46 430.91 862.46 439.3 862.46 440.22 1047.17 374.55 1047.17 373.93"/><path class="cls-3" d="M1445.38,1017.43V769.6h0v-28H497.83a56.07,56.07,0,0,0,56.08,56.07h706.76v225h184.71Z"/><polygon class="cls-5" points="1260.67 1022.61 1260.67 1082.73 862.46 1223.53 862.46 1223.73 1445.38 1223.73 1445.38 1030.62 1445.38 1022.61 1260.67 1022.61"/><polygon class="cls-3" points="820.7 834.05 821.86 832.82 820.7 832.82 820.7 834.05"/></svg>