<svg id="Layer_1" data-name="Layer 1" xmlns="http://www.w3.org/2000/svg" viewBox="0 0 1500 1500"><defs><style>.cls-1{fill:#fff;}.cls-2{fill:#39ff14;}.cls-3{fill:none;}.cls-4{fill:#231f20;}</style></defs><title>NEW QUINTLAB LOGO</title><path class="cls-1" d="M238.48,1441c-28.08-7.41-55.54-15.74-79.61-24.07-4.32-1.54-8.64-3.09-12.65-3.09-49.38-1.85-91.65-38.26-91.65-105.22,0-66.65,40.73-109.55,96.89-109.55,56.47,0,93.19,43.82,93.19,105.23,0,53.38-24.68,87.64-59.24,99.67v1.24c20.67,5.24,43.2,10.18,60.79,13.26Zm-22.22-135.47c0-41.66-21.6-84.55-65.72-84.55-45.36,0-67.58,42-67.27,87-.31,44.13,24.07,83.94,66,83.94C192.2,1391.94,216.26,1353.05,216.26,1305.53Z"/><path class="cls-1" d="M306.35,1202.47v123.12c0,46.6,20.67,66.35,48.44,66.35,30.86,0,50.61-20.37,50.61-66.35V1202.47h27.16v121.27c0,63.88-33.64,90.1-78.69,90.1-42.58,0-74.68-24.37-74.68-88.86V1202.47Z"/><path class="cls-1" d="M506,1202.47v208H479.13v-208Z"/><path class="cls-1" d="M552.87,1410.45v-208h29.32l66.65,105.22a589.82,589.82,0,0,1,37.34,67.58l.62-.3c-2.47-27.78-3.09-53.08-3.09-85.48v-87H709v208H681.86l-66-105.53c-14.5-23.15-28.39-46.91-38.88-69.43l-.92.3c1.54,26.24,2.16,51.23,2.16,85.79v88.87Z"/><path class="cls-1" d="M795.39,1225.3H732.14v-22.83h154v22.83H822.55v185.15H795.39Z"/><path class="cls-1" d="M909.24,1202.47h26.85v185.45H1025v22.53H909.24Z"/><path class="cls-1" d="M1088.51,1345l-21.6,65.42h-27.77l70.66-208h32.4l71,208h-28.69L1162.26,1345Zm68.19-21-20.36-59.87c-4.63-13.57-7.72-25.92-10.8-38h-.62c-3.09,12.34-6.48,25-10.49,37.64l-20.37,60.18Z"/><path class="cls-1" d="M1243.71,1205.25c11.72-2.47,30.24-4.33,49.06-4.33,26.85,0,44.13,4.63,57.09,15.12,10.8,8,17.28,20.37,17.28,36.73,0,20-13.27,37.64-35.18,45.66v.62c19.75,4.94,42.89,21.3,42.89,52.15a56.06,56.06,0,0,1-17.59,41.66c-14.5,13.27-38,19.44-71.9,19.44a314.35,314.35,0,0,1-41.65-2.47Zm26.84,85.16h24.38c28.39,0,45-14.81,45-34.87,0-24.37-18.51-33.94-45.67-33.94-12.34,0-19.44.93-23.76,1.85Zm0,99.68c5.25.92,13,1.23,22.53,1.23,27.77,0,53.38-10.19,53.38-40.43,0-28.38-24.37-40.11-53.69-40.11h-22.22Z"/><path class="cls-2" d="M1408.55,1394.4c0-11.41,7.72-19.43,18.51-19.43s18.21,8,18.21,19.43c0,11.11-7.09,19.44-18.51,19.44C1416,1413.84,1408.55,1405.51,1408.55,1394.4Z"/><polygon class="cls-3" points="1047.17 217.55 1421.49 84.46 1047.17 216.93 1047.17 217.55"/><path class="cls-1" d="M239.94,860.43V272.71H636v185.8H820.7V76H222.75v.8C128.8,85.48,55.23,164.5,55.23,260.71V882c0,96.21,73.57,175.23,167.52,183.91v.8h598V677.05L648.38,860.43Z"/><path class="cls-1" d="M497.83,493.7v54.88h947.55a54.87,54.87,0,0,0-54.87-54.88H1047.17V217.55L862.46,283.22V493.7Z"/><polygon class="cls-4" points="1445.38 76 1445.27 76 1421.49 84.46 1445.38 76"/><polygon class="cls-2" points="1047.17 216.93 1421.49 84.46 1445.27 76 862.46 76 862.46 273.91 862.46 282.3 862.46 283.22 1047.17 217.55 1047.17 216.93"/><path class="cls-1" d="M1445.38,860.43V612.6h0v-28H497.83a56.07,56.07,0,0,0,56.08,56.07h706.76v225h184.71Z"/><polygon class="cls-2" points="1260.67 865.61 1260.67 925.73 862.46 1066.53 862.46 1066.73 1445.38 1066.73 1445.38 873.62 1445.38 865.61 1260.67 865.61"/><polygon class="cls-1" points="820.7 677.05 821.86 675.82 820.7 675.82 820.7 677.05"/></svg>